<?xml version="1.0" encoding="UTF-8" standalone="no"?>
<!-- Uploaded to: SVG Repo, www.svgrepo.com, Generator: SVG Repo Mixer Tools -->

<svg
   height="800px"
   width="800px"
   version="1.1"
   id="_x32_"
   viewBox="0 0 512 512"
   xml:space="preserve"
   sodipodi:docname="hive.svg"
   inkscape:version="1.4 (e7c3feb100, 2024-10-09)"
   xmlns:inkscape="http://www.inkscape.org/namespaces/inkscape"
   xmlns:sodipodi="http://sodipodi.sourceforge.net/DTD/sodipodi-0.dtd"
   xmlns="http://www.w3.org/2000/svg"
   xmlns:svg="http://www.w3.org/2000/svg"><defs
   id="defs7" /><sodipodi:namedview
   id="namedview7"
   pagecolor="#ffffff"
   bordercolor="#000000"
   borderopacity="0.25"
   inkscape:showpageshadow="2"
   inkscape:pageopacity="0.0"
   inkscape:pagecheckerboard="0"
   inkscape:deskcolor="#d1d1d1"
   inkscape:zoom="1.02"
   inkscape:cx="400"
   inkscape:cy="400"
   inkscape:window-width="1920"
   inkscape:window-height="1024"
   inkscape:window-x="0"
   inkscape:window-y="0"
   inkscape:window-maximized="1"
   inkscape:current-layer="_x32_" />
<style
   type="text/css"
   id="style1">
	.st0{fill:#000000;}
</style>
<g
   id="g7"
   style="stroke:#ffffff;stroke-opacity:1;stroke-width:1.92;stroke-dasharray:none">
	<polygon
   class="st0"
   points="237.159,102.542 237.159,34.187 177.959,0 118.76,34.187 118.76,102.542 177.959,136.738  "
   id="polygon1"
   style="stroke:#ffffff;stroke-opacity:1;stroke-width:1.92;stroke-dasharray:none" />
	<polygon
   class="st0"
   points="393.249,102.542 393.249,34.187 334.036,0 274.833,34.187 274.833,102.542 334.036,136.738  "
   id="polygon2"
   style="stroke:#ffffff;stroke-opacity:1;stroke-width:1.92;stroke-dasharray:none" />
	<polygon
   class="st0"
   points="159.123,169.349 99.923,135.18 40.719,169.349 40.719,237.705 99.923,271.901 159.123,237.705  "
   id="polygon3"
   style="stroke:#ffffff;stroke-opacity:1;stroke-width:1.92;stroke-dasharray:none" />
	<polygon
   class="st0"
   points="315.199,169.349 256,135.18 196.796,169.349 196.796,237.705 256,271.901 315.199,237.705  "
   id="polygon4"
   style="stroke:#ffffff;stroke-opacity:1;stroke-width:1.92;stroke-dasharray:none" />
	<polygon
   class="st0"
   points="412.072,135.18 352.873,169.349 352.873,237.705 412.072,271.901 471.281,237.705 471.281,169.349     "
   id="polygon5"
   style="stroke:#ffffff;stroke-opacity:1;stroke-width:1.92;stroke-dasharray:none" />
	<path
   class="st0"
   d="M334.036,419.089c-8.104,9.342-31.704,42.358-31.704,58.557c0,18.973,15.381,34.354,34.354,34.354   c18.978,0,34.358-15.381,34.358-34.354c0-16.226-23.675-49.321-31.744-58.601L334.036,419.089z"
   id="path5"
   style="stroke:#ffffff;stroke-opacity:1;stroke-width:1.92;stroke-dasharray:none" />
	<polygon
   class="st0"
   points="118.76,304.529 118.76,372.884 177.959,407.062 237.159,372.884 237.159,304.529 177.959,270.342  "
   id="polygon6"
   style="stroke:#ffffff;stroke-opacity:1;stroke-width:1.92;stroke-dasharray:none" />
	<polygon
   class="st0"
   points="274.836,304.529 274.836,372.884 334.036,407.062 393.24,372.884 393.24,304.529 334.036,270.342  "
   id="polygon7"
   style="stroke:#ffffff;stroke-opacity:1;stroke-width:1.92;stroke-dasharray:none" />
</g>
</svg>
