<?xml version="1.0" encoding="UTF-8" standalone="no"?>
<!-- Uploaded to: SVG Repo, www.svgrepo.com, Generator: SVG Repo Mixer Tools -->

<svg
   fill="#000000"
   width="800px"
   height="800px"
   viewBox="0 0 32 32"
   version="1.1"
   id="svg1"
   sodipodi:docname="cloak-and-dagger.svg"
   inkscape:version="1.4.3 (0d15f75042, 2025-12-25)"
   xmlns:inkscape="http://www.inkscape.org/namespaces/inkscape"
   xmlns:sodipodi="http://sodipodi.sourceforge.net/DTD/sodipodi-0.dtd"
   xmlns="http://www.w3.org/2000/svg"
   xmlns:svg="http://www.w3.org/2000/svg">
  <defs
     id="defs1" />
  <sodipodi:namedview
     id="namedview1"
     pagecolor="#ffffff"
     bordercolor="#000000"
     borderopacity="0.25"
     inkscape:showpageshadow="2"
     inkscape:pageopacity="0.0"
     inkscape:pagecheckerboard="0"
     inkscape:deskcolor="#d1d1d1"
     inkscape:zoom="1.12125"
     inkscape:cx="400.44593"
     inkscape:cy="400"
     inkscape:window-width="1920"
     inkscape:window-height="1148"
     inkscape:window-x="0"
     inkscape:window-y="0"
     inkscape:window-maximized="1"
     inkscape:current-layer="svg1" />
  <title
     id="title1">cloak-and-dagger</title>
  <path
     d="M21.374 12.754c0.838-0.287 1.79-0.446 2.874-0.446-1.031-4.14-4.197-9.701-8.39-11.741-4.107 1.929-7.521 7.549-8.39 11.741 1.078 0 2.031 0.148 2.874 0.428-2.054 3.177-3.485 8.411-3.485 15.707 2.956 1.753 5.801 2.691 8.675 2.756-3.276-0.272-5.88-4.619-5.88-9.942 0-3.127 0.899-5.916 2.304-7.741 0.432 0.286 0.825 0.619 1.181 0.997l0.955-1.043c-0.324-0.373-0.691-0.715-1.107-1.039 0-0 0-0 0-0-0.005-0.004-0.010-0.008-0.016-0.012-0.013-0.010-0.026-0.019-0.039-0.029-0.053-0.041-0.108-0.082-0.163-0.122-0.022-0.016-0.045-0.033-0.067-0.049-0.047-0.034-0.095-0.068-0.143-0.101-0.025-0.018-0.051-0.035-0.076-0.053-0.048-0.033-0.097-0.066-0.146-0.098-0.025-0.017-0.050-0.033-0.075-0.050-0.056-0.037-0.114-0.073-0.171-0.109-0.019-0.012-0.037-0.024-0.056-0.035-0.077-0.048-0.156-0.095-0.236-0.143-0.016-0.010-0.033-0.019-0.050-0.029-0.064-0.037-0.128-0.075-0.193-0.111-0.030-0.017-0.060-0.034-0.090-0.051-0.034-0.019-0.068-0.038-0.103-0.057-0 0-0 0-0 0.001-0.307-0.169-0.632-0.336-0.977-0.503 0.791-1.968 1.997-4.948 3.532-5.121 0.6-0.068 1.243 0.295 1.942 1.315 2.189-3.64 4.268 1.167 5.474 3.806-0.337 0.183-0.655 0.362-0.958 0.54-0-0-0-0-0-0-0.029 0.017-0.057 0.034-0.086 0.051-0.037 0.022-0.074 0.044-0.11 0.066-0.055 0.034-0.11 0.067-0.164 0.101-0.027 0.017-0.055 0.034-0.082 0.051-0.072 0.045-0.142 0.090-0.212 0.135-0.028 0.018-0.055 0.036-0.082 0.054-0.048 0.032-0.096 0.063-0.143 0.095-0.029 0.019-0.057 0.039-0.086 0.058-0.046 0.031-0.091 0.062-0.135 0.094-0.027 0.019-0.054 0.038-0.081 0.057-0.048 0.034-0.096 0.069-0.143 0.104-0.021 0.016-0.043 0.031-0.064 0.047-0.067 0.050-0.133 0.1-0.198 0.151 0 0 0 0 0 0-0.427 0.334-0.806 0.685-1.143 1.071l0.911 1.024c0.364-0.388 0.77-0.736 1.22-1.036 1.395 1.825 2.286 4.604 2.286 7.718 0 5.32-2.601 9.665-5.874 9.941 2.808-0.066 5.654-0.966 8.671-2.755 0-7.278-1.431-12.509-3.485-15.69zM12.504 20.313c0.723-0.233 1.456-0.375 2.194-0.441 0.004 3.14 0.080 5.996 1.218 9.002 1.192-2.914 1.103-5.853 1.097-8.973 0.738 0.079 1.473 0.221 2.198 0.413v-1.155h-2.583c-0.43-1.407-0.369-2.813 0.051-4.22h-1.643c0.438 1.407 0.57 2.813 0.061 4.22h-2.593v1.155zM14.709 9.571c0 0.304-0.45 0.551-1.005 0.551s-1.005-0.247-1.005-0.551c0-0.304 0.45-0.551 1.005-0.551s1.005 0.247 1.005 0.551zM19.012 9.571c0 0.304-0.45 0.551-1.005 0.551s-1.005-0.247-1.005-0.551c0-0.304 0.45-0.551 1.005-0.551s1.005 0.247 1.005 0.551z"
     id="path1"
     style="stroke:#ffffff;stroke-opacity:1;stroke-width:0.2;stroke-dasharray:none" />
</svg>
