<?xml version="1.0" encoding="UTF-8" standalone="no"?>
<svg
   viewBox="3.05176e-05 1.90735e-06 583.00001 60.000002"
   version="1.1"
   id="svg1"
   sodipodi:docname="Blades in the Dark Logo Long.svg"
   inkscape:version="1.3.2 (091e20e, 2023-11-25, custom)"
   width="583"
   height="60"
   xmlns:inkscape="http://www.inkscape.org/namespaces/inkscape"
   xmlns:sodipodi="http://sodipodi.sourceforge.net/DTD/sodipodi-0.dtd"
   xmlns="http://www.w3.org/2000/svg"
   xmlns:svg="http://www.w3.org/2000/svg">
  <defs
     id="defs1" />
  <sodipodi:namedview
     id="namedview1"
     pagecolor="#ffffff"
     bordercolor="#000000"
     borderopacity="0.25"
     inkscape:showpageshadow="2"
     inkscape:pageopacity="0.0"
     inkscape:pagecheckerboard="0"
     inkscape:deskcolor="#d1d1d1"
     inkscape:zoom="0.80016276"
     inkscape:cx="239.95118"
     inkscape:cy="98.105041"
     inkscape:window-width="1920"
     inkscape:window-height="1009"
     inkscape:window-x="-8"
     inkscape:window-y="-8"
     inkscape:window-maximized="1"
     inkscape:current-layer="svg1" />
  <path
     id="path13"
     d="M 382.91803,1.90735e-6 387.39729,8.9585993 V 50.964483 l -4.47926,8.880178 h 40.3092 v 0.07843 l 4.47776,-8.880178 V 8.8801757 L 423.22723,1.90735e-6 Z m 95.90684,0 L 483.3026,8.9585993 V 50.964483 l -4.47773,8.880178 h 18.06796 V 35.752963 h 12.04735 l 1.15829,2.239648 v 13.127213 h 0.0772 l 4.47782,8.803258 h 13.59176 l -4.47941,-8.880178 V 39.460069 l -3.01184,-5.328403 -5.79135,-3.088756 6.40971,-3.244097 2.31658,-5.019233 V 8.8801757 L 519.20944,1.90735e-6 Z m 53.04874,0 L 536.35289,8.9585993 V 50.887564 l -4.47928,8.957097 h 22.47041 l -4.40091,-8.957097 V 30.424551 l 11.35064,20.463013 -1.46751,8.957097 h 23.63023 l -8.10802,-9.187847 v 0.0769 L 561.75678,22.625741 569.17097,9.2662702 579.67247,1.90735e-6 H 562.52894 L 550.0201,22.858001 V 8.9585993 L 554.65316,1.90735e-6 Z M 443.38106,0.07842696 l 2.7796,8.80174874 -12.0459,42.1627283 -5.48222,8.957098 h 19.38167 l -3.63019,-8.957098 0.54136,-2.162728 h 13.66723 l 0.54136,2.162728 -3.5532,8.957098 h 22.70264 v -0.0769 L 472.80111,50.964483 459.5201,0.07842696 Z m 52.43191,9.34318454 h 12.97188 l 1.39052,2.7795825 v 11.736674 l -1.31362,2.316567 H 496.89283 V 11.738176 Z m -95.98374,0.07692 h 12.9734 l 1.38909,2.7795735 v 35.983721 h -0.0772 l -1.15829,2.239648 h -12.89494 l 0.92596,-2.007397 V 11.815095 Z m 52.04588,13.5133085 4.24703,16.292889 h -8.80319 z"
     style="stroke-width:0.772189" />
  <g
     id="g15"
     transform="translate(-55.081999)">
    <path
       d="m 351.69623,38.633002 -2.6329,1.822777 h -37.0633 v 18.025242 l 3.13925,1.518981 4.96201,-7.797436 h 28.96204 l 11.44302,6.683517 56.60759,-5.367066 14.88609,-14.886015 z"
       id="path14"
       style="stroke-width:1.01266" />
    <path
       id="path9"
       d="M 312.00003,1.90735e-6 314.57789,4.8165454 V 22.968852 l -2.57786,4.70494 h 13.22196 l -2.57787,-4.818731 V 4.8165454 L 325.33361,1.90735e-6 Z m 14.11919,0 L 328.80651,4.8165454 V 22.968852 l -2.68729,4.816546 h 11.76453 l -2.57787,-4.816546 v -7.282804 l 7.84303,11.987744 h 6.05078 V 4.8165454 L 351.88914,1.90735e-6 H 339.89922 L 342.58869,4.8165454 V 12.547964 L 334.85728,1.90735e-6 Z m 56.80502,0 L 385.61371,4.8165454 V 22.968852 l -2.68947,4.816546 h 13.10817 l -2.57568,-4.816546 v -6.722589 h 6.05077 v 6.722589 l -2.68946,4.816546 h 12.99655 l -2.57786,-4.816546 V 4.8165454 L 409.92621,1.90735e-6 H 396.81804 L 399.5075,4.8165454 v 5.8275586 h -6.05077 V 4.8165454 L 396.14621,1.90735e-6 Z m 28.12239,0 L 413.73611,4.8165454 V 23.080459 l -2.68948,4.816546 h 20.9534 v -7.954629 l -5.26734,2.35247 h -4.93034 v -6.048583 h 0.78559 l 5.26517,2.35247 V 8.289447 l -5.26517,2.354657 h -0.78559 V 5.6021609 h 4.93034 l 5.26734,2.4640747 V 1.90735e-6 Z M 361.52442,0.11160811 V 9.6352784 l 5.71377,-2.4662632 V 5.6021609 h 0.44861 V 22.968852 l -2.68949,4.816546 h 13.3336 l -2.68948,-4.816546 V 5.6021609 h 0.44861 v 1.5668543 l 5.71376,2.4662632 V 0.11160811 Z"
       style="stroke-width:1.12044" />
  </g>
  <path
     id="path4"
     d="M 3.05176e-5,1.90735e-6 4.4334935,8.9650616 V 51.132976 L 3.05176e-5,59.999901 H 37.734483 l 4.433462,-8.866925 H 42.36422 V 37.43812 l -2.759367,-5.320537 -5.911285,-3.151914 6.40389,-3.251974 2.168627,-5.024204 V 8.8669251 L 37.832622,1.90735e-6 Z m 43.6457374824,0 V 0.09813845 h 0.04811 z M 43.693875,0.09813845 48.079231,8.9650616 V 50.934781 l -4.433463,8.966985 H 80.09865 97.5362 l -3.54639,-8.966985 0.49261,-2.166704 h 13.49665 l 0.49261,2.166704 -3.44823,8.966985 h 22.10954 L 121.87017,51.034841 108.86614,1.90735e-6 H 93.00458 L 95.76202,8.7687885 83.8413,50.934781 80.09865,57.242454 V 46.108771 l -8.67832,4.531597 H 60.59067 l 0.59077,-1.477816 0.0978,-40.0993541 4.43346,-8.96505945 z m 83.439115,59.80362755 0.004,0.0078 -0.044,0.09045 h 39.6048 l 4.43346,-8.866925 h 0.10004 V 8.8669251 L 166.79746,1.90735e-6 h -39.6067 L 131.52606,8.9650616 V 51.132976 l -4.3834,8.76879 z M 175.07172,1.90735e-6 179.50518,8.9650616 V 51.034841 l -4.43346,8.96506 h 38.12896 0.19626 V 45.910577 l -8.66872,4.531597 h -12.51336 l 0.6908,-1.477822 V 33.497266 h 3.54635 l 8.57061,4.531601 V 19.704276 l -8.57061,4.433463 h -3.54635 V 11.033626 l -0.88711,-1.674094 h 12.60959 l 8.57254,4.629733 V 1.90735e-6 Z m 45.7143,0 L 216.45072,8.9650616 V 23.152523 l 4.3353,8.768787 18.91728,6.698299 1.27962,2.266758 v 7.09277 l -1.37971,2.563097 h -14.48188 l -8.57057,-4.631657 v 14.089324 h 30.9342 l 4.43346,-8.96506 V 34.678755 L 247.585,25.911889 228.47146,19.113535 227.38814,16.84677 V 11.9207 l 1.18148,-2.561168 h 13.10407 l 8.57064,4.629733 V 1.90735e-6 Z M 16.552392,9.4576686 h 11.822563 l 1.377758,2.7593654 v 9.457667 L 28.47309,24.235873 H 17.733875 V 11.822567 Z m 127.190678,0 h 12.70966 l 1.37775,2.7593654 v 36.058438 l -1.18148,2.266762 v 0.09817 h -12.70962 l 0.9852,-2.068562 V 11.822575 Z M 101.28075,23.05439 105.51606,39.310411 H 96.94543 Z M 17.733875,33.595405 H 28.57123 l 1.181483,2.266759 V 48.275472 L 28.57123,50.542234 H 16.748666 l 0.985209,-2.07049 z"
     style="stroke-width:0.985216" />
</svg>
